<svg id="icon_arrowhead" data-name="icon arrowhead" xmlns="http://www.w3.org/2000/svg" width="24" height="24" viewBox="0 0 24 24">
  <rect id="BG" width="24" height="24" fill="rgba(255,255,255,0)"/>
  <path id="arrowhead" d="M4.6,0a1.055,1.055,0,0,0,.423-.091,1.348,1.348,0,0,0,.383-.275l3.517-3.6a.886.886,0,0,0,.27-.657.94.94,0,0,0-.13-.486.984.984,0,0,0-.346-.35.911.911,0,0,0-.478-.13.957.957,0,0,0-.707.314L4.605-2.236,1.664-5.277a.975.975,0,0,0-.711-.314.911.911,0,0,0-.478.13.984.984,0,0,0-.346.35A.94.94,0,0,0,0-4.626a.928.928,0,0,0,.066.355.982.982,0,0,0,.2.3l3.525,3.6A1.124,1.124,0,0,0,4.6,0Z" transform="translate(7.404 14.796)" fill="#fff"/>
</svg>
